<svg xmlns="http://www.w3.org/2000/svg" viewBox="0 0 336.06 336.06"><defs><style>.cls-1{fill:#1d1d1b;}.cls-2{fill:#fff;}.cls-3{fill:#f7f7f0;}</style></defs><g id="Livello_2" data-name="Livello 2"><g id="Livello_1-2" data-name="Livello 1"><rect class="cls-1" width="336.06" height="336.06" rx="12"/><path class="cls-2" d="M77.12,309.47l38-66.82s68.94-52.79,77.59-55.28,15.23-29.61,15.23-29.61-29.36,27-45.5,30.62,5.83-21,5.83-21a85.26,85.26,0,0,1,25.12-17.27s59.06-24.74,62.83-30.12c0,0-10.5.46-22.54,7.79s52.78-29.28,65-54.33l3.91-13.81s-39.73,13.85-49.36,34.89c0,0,29.82-51.81,58.67-54.64,0,0-98.41,2.73-120.24,49.24Z"/><path class="cls-3" d="M140.24,304.91q-2.4-7.05-20-53.86l-54.5-134.8Q56.41,93.17,54,90T34.77,85.79l-1.44-1.44V77l1.44-1.45q24.52,1.29,41.68,1.29,16,0,42.48-1.29l1.28,1.29v8.81l-1.28,1.29q-19.41,0-23.17,1.2T92,92.69q0,1.92,5.13,17.07t9.13,25.56l50.17,126.79L198.27,157q4.32-10.74,12.66-34.62t8.34-28.69a4.9,4.9,0,0,0-3.93-5.13q-3.93-1.12-23.48-2.73l-1.45-1.28V76.82l1.45-1.29q28,1.29,35.74,1.29,6.26,0,32.38-1.29l1.28,1.29v7.69L260,85.79c-7.7.32-12.34.91-14,1.77a10.79,10.79,0,0,0-4.24,5q-1.84,3.68-11.46,25.32l-50,123.1q-16.83,41.21-23.89,64Z"/></g></g></svg>